<svg xmlns="http://www.w3.org/2000/svg" viewBox="0 0 182 182" width="182" height="182" role="img" aria-labelledby="logoTitle logoDesc">
  <title id="logoTitle">ben.junuzi.com logo</title>
  <desc id="logoDesc">A gold pixel star, echoing the star in the ben.junuzi.com wordmark logo, on a dark navy rounded square.</desc>
  <defs>
  <linearGradient id="bg" gradientUnits="userSpaceOnUse" x1="0" y1="0" x2="0" y2="182">
  <stop offset="0" stop-color="#16295c"/><stop offset="1" stop-color="#081735"/>
  </linearGradient>
  <linearGradient id="star" gradientUnits="userSpaceOnUse" x1="0" y1="34.58" x2="0" y2="147.42">
  <stop offset="0" stop-color="#ffe26e"/><stop offset="0.55" stop-color="#fdc22e"/>
  <stop offset="1" stop-color="#f09b16"/></linearGradient>
  </defs>
  <rect width="182" height="182" rx="42" fill="url(#bg)"/>
  <rect x="1.5" y="1.5" width="179" height="179" rx="41" fill="none" stroke="#7fb2ff" stroke-opacity="0.28" stroke-width="3"/>
  <rect x="14.13" y="38.81" width="7.05" height="7.05" fill="#40e9ff"/>
  <rect x="153.77" y="129.08" width="7.05" height="7.05" fill="#ff4fa3"/>
  <path d="M115.684 55.737L115.684 62.789L122.737 62.789L129.789 62.789L136.842 62.789L143.895 62.789L150.947 62.789L158.000 62.789L158.000 69.842L158.000 76.895L158.000 83.947L150.947 83.947L150.947 91.000L143.895 91.000L143.895 98.053L136.842 98.053L136.842 105.105L129.789 105.105L129.789 112.158L129.789 119.211L136.842 119.211L136.842 126.263L136.842 133.316L136.842 140.368L136.842 147.421L136.842 154.474L129.789 154.474L122.737 154.474L115.684 154.474L115.684 147.421L108.632 147.421L101.579 147.421L101.579 140.368L94.526 140.368L87.474 140.368L80.421 140.368L80.421 147.421L73.368 147.421L66.316 147.421L66.316 154.474L59.263 154.474L52.211 154.474L45.158 154.474L45.158 147.421L45.158 140.368L45.158 133.316L45.158 126.263L45.158 119.211L52.211 119.211L52.211 112.158L52.211 105.105L45.158 105.105L45.158 98.053L38.105 98.053L38.105 91.000L31.053 91.000L31.053 83.947L24.000 83.947L24.000 76.895L24.000 69.842L24.000 62.789L31.053 62.789L38.105 62.789L45.158 62.789L52.211 62.789L59.263 62.789L66.316 62.789L66.316 55.737L66.316 48.684L73.368 48.684L73.368 41.632L73.368 34.579L80.421 34.579L80.421 27.526L87.474 27.526L94.526 27.526L101.579 27.526L101.579 34.579L108.632 34.579L108.632 41.632L108.632 48.684L115.684 48.684L115.684 55.737Z" fill="#050d22"/>
  <path d="M52.211 91.000L45.158 91.000L45.158 83.947L38.105 83.947L38.105 76.895L31.053 76.895L31.053 69.842L38.105 69.842L45.158 69.842L52.211 69.842L59.263 69.842L66.316 69.842L73.368 69.842L73.368 62.789L73.368 55.737L80.421 55.737L80.421 48.684L80.421 41.632L87.474 41.632L87.474 34.579L94.526 34.579L94.526 41.632L101.579 41.632L101.579 48.684L101.579 55.737L108.632 55.737L108.632 62.789L108.632 69.842L115.684 69.842L122.737 69.842L129.789 69.842L136.842 69.842L143.895 69.842L150.947 69.842L150.947 76.895L143.895 76.895L143.895 83.947L136.842 83.947L136.842 91.000L129.789 91.000L129.789 98.053L122.737 98.053L122.737 105.105L122.737 112.158L122.737 119.211L122.737 126.263L129.789 126.263L129.789 133.316L129.789 140.368L129.789 147.421L122.737 147.421L122.737 140.368L115.684 140.368L108.632 140.368L108.632 133.316L101.579 133.316L94.526 133.316L94.526 126.263L87.474 126.263L87.474 133.316L80.421 133.316L73.368 133.316L73.368 140.368L66.316 140.368L59.263 140.368L59.263 147.421L52.211 147.421L52.211 140.368L52.211 133.316L52.211 126.263L59.263 126.263L59.263 119.211L59.263 112.158L59.263 105.105L59.263 98.053L52.211 98.053L52.211 91.000Z" fill="url(#star)"/>
</svg>
